<svg xmlns="http://www.w3.org/2000/svg" viewBox="0 0 64 64" role="img" aria-labelledby="title desc">
  <title id="title">Gospelwood favicon</title>
  <desc id="desc">A gold G on a deep charcoal film-frame background.</desc>
  <rect width="64" height="64" rx="12" fill="#1F2933"/>
  <rect x="9" y="9" width="46" height="46" rx="7" fill="none" stroke="#D99A2B" stroke-width="3"/>
  <path d="M39 19c-3-2-6-3-10-3-9 0-15 6-15 16s6 16 15 16c5 0 9-1 12-4V31H29v6h5v3c-1 1-3 2-5 2-5 0-8-4-8-10s3-10 8-10c3 0 5 1 7 3z" fill="#D99A2B"/>
  <circle cx="14" cy="14" r="2" fill="#FFF8E7"/>
  <circle cx="50" cy="14" r="2" fill="#FFF8E7"/>
  <circle cx="14" cy="50" r="2" fill="#FFF8E7"/>
  <circle cx="50" cy="50" r="2" fill="#FFF8E7"/>
</svg>
